# xmcd CD database file
#
# Track frame offsets:
#	150
#	13118
#	24795
#	37380
#	47081
#	58948
#	72311
#	85328
#	96943
#	108273
#	119930
#	130168
#	139506
#	150501
#	163344
#	175586
#	184660
#	196242
#	210450
#	224094
#	236262
#	247750
#	259640
#	270692
#	284336
#	297931
#	310383
#	320850
#
# Disc length: 4420 seconds
#
# Revision: 0
# Processed by: cddbd v1.5.1PL0 Copyright (c) Steve Scherf et al.
# Submitted via: CDex 1.51
#
DISCID=a711421c
DTITLE=Webb Pierce - Groovie Boogie Woogie Boy
DYEAR=2004
DGENRE=Country
TTITLE0=Groovie Boogie Woogie Boy
TTITLE1=High Geared Daddy
TTITLE2=New Panhandle Rag
TTITLE3=Heebie Jeebie Blues
TTITLE4=Sweetheart You Know I Love You So
TTITLE5=A Million Years From Now
TTITLE6=I Heard Her Call My Name
TTITLE7=I'm Happy You Hurt Me
TTITLE8=English Sweetheart
TTITLE9=I've Loved You Forever It Seems
TTITLE10=Hawaiian Echoes
TTITLE11=Georgia Rag
TTITLE12=Lucy Lee
TTITLE13=Jilted Love
TTITLE14=Driftin' Texas Sand
TTITLE15=I Need You Like A Hole In THe Head
TTITLE16=I'm Sittin' On Top Of The World
TTITLE17=Freight Train Blues
TTITLE18=California Blues
TTITLE19=Hayride Boogie
TTITLE20=I Got Religion On Saturday Night
TTITLE21=Have You Ever Had The Feeling
TTITLE22=In The Jailhouse
TTITLE23=The Last Waltz
TTITLE24=Wondering
TTITLE25=Back Street Affair
TTITLE26=It's Been So Long
TTITLE27=There Stands The Glass
EXTD=YEAR: 2004
EXTT0=
EXTT1=
EXTT2=
EXTT3=
EXTT4=
EXTT5=
EXTT6=
EXTT7=
EXTT8=
EXTT9=
EXTT10=
EXTT11=
EXTT12=
EXTT13=
EXTT14=
EXTT15=
EXTT16=
EXTT17=
EXTT18=
EXTT19=
EXTT20=
EXTT21=
EXTT22=
EXTT23=
EXTT24=
EXTT25=
EXTT26=
EXTT27=
PLAYORDER=
